<svg width="512" height="512" viewBox="0 0 512 512" fill="none" xmlns="http://www.w3.org/2000/svg">
<path d="M512 256C512 397.385 397.385 512 256 512C114.615 512 0 397.385 0 256C0 114.615 114.615 0 256 0C397.385 0 512 114.615 512 256Z" fill="#C5C5C5"/>
<path d="M174.963 365V146.818H262.321C278.372 146.818 291.76 149.197 302.484 153.956C313.209 158.714 321.27 165.32 326.668 173.771C332.065 182.152 334.764 191.811 334.764 202.749C334.764 211.271 333.06 218.764 329.651 225.227C326.241 231.619 321.554 236.875 315.588 240.994C309.693 245.043 302.946 247.919 295.347 249.624V251.754C303.656 252.109 311.433 254.453 318.678 258.785C325.993 263.118 331.923 269.19 336.469 277.003C341.014 284.744 343.287 293.977 343.287 304.702C343.287 316.278 340.411 326.612 334.658 335.703C328.976 344.723 320.56 351.861 309.409 357.116C298.259 362.372 284.516 365 268.18 365H174.963ZM221.092 327.287H258.699C271.554 327.287 280.929 324.837 286.824 319.936C292.719 314.964 295.666 308.359 295.666 300.121C295.666 294.084 294.21 288.757 291.298 284.141C288.386 279.524 284.232 275.902 278.834 273.274C273.507 270.646 267.151 269.332 259.764 269.332H221.092V327.287ZM221.092 238.118H255.29C261.611 238.118 267.222 237.017 272.122 234.815C277.094 232.543 281 229.347 283.841 225.227C286.753 221.108 288.209 216.172 288.209 210.419C288.209 202.536 285.403 196.179 279.793 191.349C274.253 186.52 266.369 184.105 256.142 184.105H221.092V238.118Z" fill="#707070"/>
</svg>
